<mxfile host="app.diagrams.net" modified="2021-01-10T07:47:46.225Z" agent="5.0 (Macintosh; Intel Mac OS X 10_15_7) AppleWebKit/537.36 (KHTML, like Gecko) Chrome/87.0.4280.141 Safari/537.36" etag="yvAOMeHTPtXhEOmrg60C" version="14.1.8" type="github">
  <diagram id="m-hozwIraGs_RCXANB_e" name="Page-1">
    <mxGraphModel dx="890" dy="611" grid="1" gridSize="10" guides="1" tooltips="1" connect="1" arrows="1" fold="1" page="1" pageScale="1" pageWidth="827" pageHeight="1169" math="0" shadow="0">
      <root>
        <mxCell id="0" />
        <mxCell id="1" parent="0" />
        <mxCell id="B49CkkASTAIgz1Ln5kYT-7" value="" style="rounded=0;whiteSpace=wrap;html=1;rotation=-45;dashed=1;" parent="1" vertex="1">
          <mxGeometry x="428.75" y="137.72" width="144.24" height="93.16" as="geometry" />
        </mxCell>
        <mxCell id="B49CkkASTAIgz1Ln5kYT-6" value="" style="rounded=0;whiteSpace=wrap;html=1;rotation=-45;dashed=1;" parent="1" vertex="1">
          <mxGeometry x="121.69" y="141.82" width="376" height="117.07" as="geometry" />
        </mxCell>
        <mxCell id="sWCAbqIsSpMauEiSs6HI-1" value="module" style="ellipse;whiteSpace=wrap;html=1;" parent="1" vertex="1">
          <mxGeometry x="20" y="30" width="80" height="40" as="geometry" />
        </mxCell>
        <mxCell id="sWCAbqIsSpMauEiSs6HI-2" value="block" style="rounded=0;whiteSpace=wrap;html=1;" parent="1" vertex="1">
          <mxGeometry x="120" y="30" width="80" height="40" as="geometry" />
        </mxCell>
        <mxCell id="sWCAbqIsSpMauEiSs6HI-4" value="a.js" style="ellipse;whiteSpace=wrap;html=1;" parent="1" vertex="1">
          <mxGeometry x="374" y="80" width="80" height="40" as="geometry" />
        </mxCell>
        <mxCell id="sWCAbqIsSpMauEiSs6HI-5" value="b.js" style="ellipse;whiteSpace=wrap;html=1;" parent="1" vertex="1">
          <mxGeometry x="294" y="160" width="80" height="40" as="geometry" />
        </mxCell>
        <mxCell id="sWCAbqIsSpMauEiSs6HI-6" value="c.js" style="rounded=0;whiteSpace=wrap;html=1;" parent="1" vertex="1">
          <mxGeometry x="460" y="170" width="80" height="40" as="geometry" />
        </mxCell>
        <mxCell id="sWCAbqIsSpMauEiSs6HI-9" value="" style="endArrow=classic;html=1;exitX=0.5;exitY=1;exitDx=0;exitDy=0;entryX=0.5;entryY=0;entryDx=0;entryDy=0;" parent="1" source="sWCAbqIsSpMauEiSs6HI-4" target="sWCAbqIsSpMauEiSs6HI-5" edge="1">
          <mxGeometry width="50" height="50" relative="1" as="geometry">
            <mxPoint x="400" y="270" as="sourcePoint" />
            <mxPoint x="450" y="220" as="targetPoint" />
          </mxGeometry>
        </mxCell>
        <mxCell id="sWCAbqIsSpMauEiSs6HI-10" value="" style="endArrow=classic;html=1;exitX=0.5;exitY=1;exitDx=0;exitDy=0;entryX=0.5;entryY=0;entryDx=0;entryDy=0;" parent="1" source="sWCAbqIsSpMauEiSs6HI-4" target="sWCAbqIsSpMauEiSs6HI-6" edge="1">
          <mxGeometry width="50" height="50" relative="1" as="geometry">
            <mxPoint x="424" y="130" as="sourcePoint" />
            <mxPoint x="320" y="170" as="targetPoint" />
          </mxGeometry>
        </mxCell>
        <mxCell id="sWCAbqIsSpMauEiSs6HI-12" value="d.js" style="ellipse;whiteSpace=wrap;html=1;" parent="1" vertex="1">
          <mxGeometry x="214" y="250" width="80" height="40" as="geometry" />
        </mxCell>
        <mxCell id="sWCAbqIsSpMauEiSs6HI-14" value="" style="endArrow=classic;html=1;entryX=0.5;entryY=0;entryDx=0;entryDy=0;exitX=0.5;exitY=1;exitDx=0;exitDy=0;" parent="1" source="sWCAbqIsSpMauEiSs6HI-5" target="sWCAbqIsSpMauEiSs6HI-12" edge="1">
          <mxGeometry width="50" height="50" relative="1" as="geometry">
            <mxPoint x="330" y="220" as="sourcePoint" />
            <mxPoint x="250" y="240" as="targetPoint" />
          </mxGeometry>
        </mxCell>
        <mxCell id="B49CkkASTAIgz1Ln5kYT-11" value="chunk 0" style="text;html=1;strokeColor=none;fillColor=none;align=center;verticalAlign=middle;whiteSpace=wrap;rounded=0;dashed=1;" parent="1" vertex="1">
          <mxGeometry x="180" y="141.82" width="70" height="18.18" as="geometry" />
        </mxCell>
        <mxCell id="B49CkkASTAIgz1Ln5kYT-12" value="chunk 1" style="text;html=1;strokeColor=none;fillColor=none;align=center;verticalAlign=middle;whiteSpace=wrap;rounded=0;dashed=1;" parent="1" vertex="1">
          <mxGeometry x="550" y="110" width="70" height="18.18" as="geometry" />
        </mxCell>
      </root>
    </mxGraphModel>
  </diagram>
</mxfile>
